<svg width="128" height="128" viewBox="0 0 128 128" fill="none" xmlns="http://www.w3.org/2000/svg">
<rect width="128" height="128" fill="#1D3557"/>
<path d="M32.8596 77V50.8182H43.3425C45.2686 50.8182 46.8752 51.1037 48.1621 51.6747C49.449 52.2457 50.4164 53.0384 51.0641 54.0526C51.7118 55.0582 52.0357 56.2173 52.0357 57.5298C52.0357 58.5526 51.8311 59.4517 51.4221 60.2273C51.013 60.9943 50.4505 61.625 49.7346 62.1193C49.0272 62.6051 48.2175 62.9503 47.3056 63.1548V63.4105C48.3027 63.4531 49.236 63.7344 50.1053 64.2543C50.9831 64.7741 51.6948 65.5028 52.2402 66.4403C52.7857 67.3693 53.0584 68.4773 53.0584 69.7642C53.0584 71.1534 52.7132 72.3935 52.0229 73.4844C51.3411 74.5668 50.3311 75.4233 48.9931 76.054C47.655 76.6847 46.0059 77 44.0456 77H32.8596ZM38.3951 72.4744H42.9078C44.4505 72.4744 45.5755 72.1804 46.2828 71.5923C46.9902 70.9957 47.3439 70.2031 47.3439 69.2145C47.3439 68.4901 47.1692 67.8509 46.8198 67.2969C46.4703 66.7429 45.9718 66.3082 45.324 65.9929C44.6848 65.6776 43.9221 65.5199 43.0357 65.5199H38.3951V72.4744ZM38.3951 61.7741H42.4988C43.2573 61.7741 43.9306 61.642 44.5186 61.3778C45.1152 61.1051 45.584 60.7216 45.9249 60.2273C46.2743 59.733 46.449 59.1406 46.449 58.4503C46.449 57.5043 46.1124 56.7415 45.4391 56.1619C44.7743 55.5824 43.8283 55.2926 42.601 55.2926H38.3951V61.7741ZM56.6603 50.8182H63.487L70.6973 68.4091H71.0041L78.2143 50.8182H85.041V77H79.6717V59.9588H79.4544L72.6788 76.8722H69.0226L62.247 59.8949H62.0297V77H56.6603V50.8182ZM95.1373 50.8182V77H89.6017V50.8182H95.1373Z" fill="white"/>
</svg>
