<svg width="16" height="16" viewBox="0 0 16 16" fill="none" xmlns="http://www.w3.org/2000/svg">
<path d="M2.6685 7.65718C2.33445 7.65718 2.06364 7.92799 2.06364 8.26204C2.06363 8.5961 2.33444 8.8669 2.66849 8.86691L2.6685 7.65718ZM13.8589 8.26213L14.2866 8.68983C14.5228 8.45361 14.5228 8.07064 14.2866 7.83442L13.8589 8.26213ZM9.57258 3.12038C9.33637 2.88417 8.95339 2.88417 8.71718 3.12038C8.48097 3.35659 8.48097 3.73957 8.71718 3.97578L9.57258 3.12038ZM8.71718 12.5485C8.48097 12.7847 8.48097 13.1677 8.71718 13.4039C8.95339 13.6401 9.33637 13.6401 9.57258 13.4039L8.71718 12.5485ZM2.66849 8.86691L13.8589 8.86699L13.8589 7.65726L2.6685 7.65718L2.66849 8.86691ZM8.71718 3.97578L13.4312 8.68983L14.2866 7.83442L9.57258 3.12038L8.71718 3.97578ZM13.4312 7.83442L8.71718 12.5485L9.57258 13.4039L14.2866 8.68983L13.4312 7.83442Z" fill="white"/>
</svg>
